# xmcd
# 
# Track frame offsets:
#     150
#     10120
#     22602
#     32562
#     46892
#     60545
#     71415
#     81429
#     92290
#     103420
#     114557
#     128457
#     142935
#     152722
#     165312
#     175642
#     186762
#     197305
#     211342
#     223227
#     237015
#     249555
#     262020
#     276032
#     287962
# 
# Disc length: 4021
# 
# Revision: 5
# Processed by: cddbd v1.5.2PL0 Copyright (c) Steve Scherf et al.
# Submitted via: fre:ac v1.0.17
# 
DISCID=4b0fb319
DTITLE=José Alfredo Jiménez - Las 100 clásicas vol. 2 -Cd1
DYEAR=2001
DGENRE=Ranchera
TTITLE0=El rey
TTITLE1=Serenata sin luna
TTITLE2=Que se me acabe la vida
TTITLE3=Pa' todo el año
TTITLE4=El caballo blanco
TTITLE5=Canta, canta, canta
TTITLE6=Cuando el destino
TTITLE7=Muchacha bonita
TTITLE8=Por qué volviste a mí?
TTITLE9=Para morir iguales
TTITLE10=Sonaron 4 balazos
TTITLE11=Las ciudades
TTITLE12=Amor sin medida
TTITLE13=El peor de los caminos
TTITLE14=Pedro el herrero
TTITLE15=Si nos dejan
TTITLE16=En el último trago
TTITLE17=Cuando sale la luna
TTITLE18=Cuando lloran los hombres
TTITLE19=Sucedió en la barranca
TTITLE20=Guitarras de medianoche
TTITLE21=Cuando tenía tu edad
TTITLE22=Dios me señaló
TTITLE23=El camino de la noche
TTITLE24=Marcando el paso
EXTD=YEAR: 2001
EXTT0=
EXTT1=
EXTT2=
EXTT3=
EXTT4=
EXTT5=
EXTT6=
EXTT7=
EXTT8=
EXTT9=
EXTT10=
EXTT11=
EXTT12=
EXTT13=
EXTT14=
EXTT15=
EXTT16=
EXTT17=
EXTT18=
EXTT19=
EXTT20=
EXTT21=
EXTT22=
EXTT23=
EXTT24=
PLAYORDER=
